<svg width="160" height="160" viewBox="0 0 160 160" fill="none" xmlns="http://www.w3.org/2000/svg">
<rect width="160" height="160" fill="#D97757" fill-opacity="0.7"/>
<path d="M82.128 31.888C84.3467 31.7173 86.5227 31.7173 88.656 31.888C95.7387 32.5707 101.755 35.472 106.704 40.592C107.387 41.1893 107.771 41.5307 107.856 41.616L111.824 36.752C114.213 33.936 115.621 32.3147 116.048 31.888C116.133 31.8027 116.603 31.76 117.456 31.76C118.139 31.76 118.608 31.888 118.864 32.144L119.248 32.528V50.704V68.752L118.864 69.136L118.48 69.52H115.664C113.616 69.52 112.507 69.3493 112.336 69.008C112.251 68.8373 112.08 68.0693 111.824 66.704C110.373 55.3547 106.448 47.2907 100.048 42.512C97.744 40.8907 95.312 39.824 92.752 39.312C91.3867 38.9707 89.3387 38.8853 86.608 39.056C76.2827 39.9947 68.56 44.3467 63.44 52.112C60.368 56.6347 58.448 63.0347 57.68 71.312C57.3387 74.0427 57.296 78.1813 57.552 83.728C57.6373 84.4107 57.68 84.9227 57.68 85.264C58.2773 92.176 59.6853 97.7227 61.904 101.904C65.8293 109.584 72.272 114.491 81.232 116.624C81.8293 116.795 82.4267 116.923 83.024 117.008C90.96 118.459 97.6587 116.965 103.12 112.528C108.923 107.579 112.165 100.795 112.848 92.176C112.848 91.92 112.848 91.6213 112.848 91.28C112.848 90 112.976 89.2747 113.232 89.104L113.616 88.72H116.048H118.48L118.864 89.104C119.12 89.36 119.248 89.8293 119.248 90.512C119.248 94.5227 118.48 98.5333 116.944 102.544C116.176 104.763 114.981 107.152 113.36 109.712C110.373 114.235 106.789 117.691 102.608 120.08C96.464 123.835 89.7227 125.371 82.384 124.688C71.632 123.749 62.4587 119.483 54.864 111.888C51.3653 108.389 48.5067 104.464 46.288 100.112C40.3147 88.336 39.2907 76.2187 43.216 63.76C44.0693 61.2853 45.0933 58.8533 46.288 56.464C51.3227 46.48 58.9173 39.3547 69.072 35.088C71.0347 34.2347 73.0827 33.552 75.216 33.04C77.6907 32.4427 79.9947 32.0587 82.128 31.888Z" fill="black"/>
</svg>
